<svg width="50" height="50" viewBox="0 0 50 50" fill="none" xmlns="http://www.w3.org/2000/svg">
<path d="M45.4093 20.5632H30.3241C29.8341 20.5632 29.4368 20.1658 29.4368 19.6758V4.59062C29.4368 2.14041 27.4502 0.153809 25 0.153809C22.5498 0.153809 20.5632 2.14041 20.5632 4.59062V19.6758C20.5632 20.1658 20.1658 20.5632 19.6758 20.5632H4.59062C2.14041 20.5632 0.153809 22.5498 0.153809 25C0.153809 27.4502 2.14041 29.4368 4.59062 29.4368H19.6758C20.1658 29.4368 20.5632 29.8341 20.5632 30.3241V45.4093C20.5632 47.8595 22.5498 49.8461 25 49.8461C27.4502 49.8461 29.4368 47.8595 29.4368 45.4093V30.3241C29.4368 29.8341 29.8341 29.4368 30.3241 29.4368H45.4093C47.8595 29.4368 49.8461 27.4502 49.8461 25C49.8461 22.5498 47.8595 20.5632 45.4093 20.5632Z" fill="white"/>
</svg>
