<svg id="Capa_1" enable-background="new 0 0 511.995 511.995" height="512" viewBox="0 0 511.995 511.995" width="512" xmlns="http://www.w3.org/2000/svg"><g><g><g><path d="m255.997 355.024c-54.306 0-98.33-44.024-98.33-98.33v-80.183h98.33 98.33v80.183c0 54.306-44.024 98.33-98.33 98.33z" fill="#fed2a4"/></g><g><path d="m282.676 371.53v-39.43h-53.357v39.43c0 10.051-6.01 19.186-15.314 22.989-40.513 16.56-69.061 56.358-69.061 102.83v.004 7.166h222.106v-7.166-.004c0-46.472-28.547-86.271-69.061-102.83-9.303-3.803-15.313-12.938-15.313-22.989z" fill="#fed2a4"/></g><g><path d="m343.715 504.519c0-44.661-10.067-66.706-62.05-97.369-11.665-6.881-20.048-21.644-20.048-35.18v-39.872h21.062v39.43c0 10.052 6.01 19.189 15.305 22.988 40.514 16.568 69.07 56.366 69.07 102.837l-.005 7.166z" fill="#ffbd86"/></g><g><path d="m367.045 497.347v7.178h-222.096v-7.178c0-46.469 28.541-86.266 69.061-102.829 5.769-2.36 10.274-6.774 12.859-12.193 14.812 2.958 29.862 4.527 44.449 2.213 4.572-.723 9.134-1.558 13.683-2.461 2.563 5.532 7.124 10.048 12.983 12.442 40.52 16.561 69.061 56.358 69.061 102.828z" fill="#fdf6ec"/></g><g><path d="m367.046 497.342v7.177h-23.334c0-44.665-10.067-66.703-62.048-97.373-7.834-4.615-14.184-12.798-17.513-21.769 2.402-.189 4.794-.459 7.167-.837 4.575-.728 9.13-1.565 13.685-2.462 2.562 5.532 7.127 10.047 12.978 12.439 40.528 16.566 69.065 56.356 69.065 102.825z" fill="#fef1da"/></g><g><path d="m326.751 478.571v25.953h-141.508v-25.953c0-3.681.79-7.316 2.281-10.725 4.324-9.89 12.554-34.096 4.155-61.022 6.898-4.911 14.383-9.055 22.331-12.306 5.769-2.36 10.274-6.774 12.859-12.193 14.812 2.958 29.862 4.527 44.449 2.213 4.572-.723 9.134-1.558 13.683-2.461 2.563 5.532 7.124 10.048 12.983 12.442 7.948 3.252 15.433 7.395 22.332 12.306-8.4 26.926-.169 51.132 4.155 61.022 1.49 3.408 2.28 7.044 2.28 10.724z" fill="#d9b1ee"/></g><g><path d="m255.997 385.646v118.883h-19.935v-120.578c6.649 1.027 13.317 1.665 19.935 1.695z" fill="#cb97e7"/></g><g><path d="m326.747 478.573v25.955h-19.865v-29.175c0-4.137-.787-8.223-2.283-12.061-4.286-11.024-12.41-37.857-4.366-67.819 7.117 3.09 13.845 6.908 20.085 11.353-8.403 26.922-.169 51.133 4.156 61.021 1.485 3.41 2.273 7.048 2.273 10.726z" fill="#cb97e7"/></g><g><path d="m338.718 204.893s-9.349 46.846-9.35 46.852c-2.752 12.904-13.906 25.911-27.076 28.277-12.465 2.239-22.547-5.185-34.243-7.498-11.767-2.327-22.818-.655-34.028 3.417-7.821 2.841-15.889 5.595-24.318 4.081-13.17-2.366-24.324-15.373-27.076-28.277-.001-.006-9.35-46.852-9.35-46.852l-15.614 4.245v47.553c0 54.312 44.032 98.334 98.336 98.334 54.301 0 98.334-44.022 98.334-98.334v-47.553z" fill="#596c76"/></g><g><path d="m354.327 209.141v47.545c0 54.313-44.027 98.34-98.33 98.34-11.871 0-23.244-2.103-33.78-5.961 4.525.648 9.15.977 13.845.977 54.293 0 98.33-44.017 98.33-98.33v-25.138l4.326-21.679z" fill="#465a61"/></g><g><g><path d="m157.668 254.538h-10.516c-12.535 0-22.696-10.161-22.696-22.696 0-12.535 10.161-22.696 22.696-22.696h10.516z" fill="#fed2a4"/></g><g><path d="m354.327 254.538h10.516c12.535 0 22.696-10.161 22.696-22.696 0-12.535-10.161-22.696-22.696-22.696h-10.516z" fill="#fed2a4"/></g></g><g><path d="m280.45 305.57c-2.219-2.819-5.919-3.081-9.197-2.734-10.52 1.115-20.054 1.108-30.511 0-3.278-.347-6.978-.085-9.197 2.734-1.452 1.844-1.694 4.445-1.04 6.699s2.104 4.202 3.755 5.871c10.711 10.825 32.713 10.877 43.476-.001 1.651-1.669 3.101-3.616 3.755-5.871.653-2.254.41-4.854-1.041-6.698z" fill="#fed2a4"/></g><g><path d="m356.217 130.652c-27.715-65.468-113.359-87.192-168.48-42.532-12.493 10.123-24.06 23.872-31.959 42.532-6.017 14.212-8.757 29.598-8.757 45.031v33.454s11.413.002 11.885.005c19.705.128 39.357-3.264 57.612-10.685 10.855-4.413 21.528-10.255 31.539-18.165 4.668-3.688 11.214-3.688 15.882 0 10.011 7.91 20.684 13.752 31.539 18.165 18.254 7.421 37.907 10.813 57.612 10.685.472-.003 11.885-.005 11.885-.005v-33.454c-.001-15.433-2.741-30.818-8.758-45.031z" fill="#596c76"/></g><g><path d="m364.972 175.68v33.461s-11.413 0-11.881 0c-2.761.01-5.502-.03-8.253-.16v-33.301c0-15.43-2.751-30.81-8.761-45.023-13.616-32.165-41.206-53.765-72.295-62.128-.01 0-.02-.01-.04-.01-4.894-1.565-9.888-2.811-14.951-3.708 44.066-2.362 88.811 21.869 107.43 65.846 6.01 14.213 8.751 29.593 8.751 45.023z" fill="#465a61"/></g><g><path d="m364.928 65.732c-2.953-2.236-6.081-4.128-9.543-6.221-38.891-23.512-87.279-32.98-132.799-24.608-7.711 1.418-15.323 3.313-22.776 5.654-18.135 5.696-38.146 13.293-52.791 25.123-47.059 38.018.227 97.35.227 97.35l58.621-27.166c31.604-14.646 68.653-14.646 100.257 0l58.622 27.167 12.791-24.023c5.506-10.341 8.353-21.82 7.756-33.37-.784-15.207-7.051-29.824-20.365-39.906z" fill="#ebd5f6"/></g><g><path d="m377.541 139.009-12.798 24.022-18.29-8.482 11.682-25.298c5.512-10.346 8.353-21.819 7.755-33.371-.777-15.21-7.047-29.823-20.364-39.91-2.95-2.233-6.08-4.127-9.539-6.22-1.007-.608-2.013-1.206-3.03-1.794 7.745 3.349 15.25 7.216 22.427 11.552 3.459 2.093 6.589 3.987 9.549 6.22 13.307 10.087 19.576 24.7 20.364 39.91.597 11.552-2.253 23.025-7.756 33.371z" fill="#e5caf3"/></g><g><path d="m380.989 158.677c.409-6.216-2.897-11.985-8.382-14.742-2.687-1.35-5.037-2.528-5.475-2.738-27.317-13.123-55.456-25.992-85.452-31.522-28.378-5.232-58.218-1.179-85.434 8.258-11.759 4.078-23.202 9.024-34.427 14.388-2.085.996-14.03 7.152-22.587 11.573-5.402 2.791-8.632 8.515-8.233 14.582l.038.575c.682 10.365 11.264 17.011 20.924 13.193 18.424-7.281 42.19-14.664 62.698-20.567 27.017-7.777 55.668-7.777 82.685 0 20.508 5.903 44.273 13.285 62.697 20.567 9.66 3.818 20.244-2.832 20.925-13.197z" fill="#d9b1ee"/></g><g><path d="m380.99 158.675-.03.369c-.678 10.366-11.263 17.015-20.922 13.197-4.127-1.625-8.512-3.259-13.077-4.884 8.403-.478 15.769-7.067 16.377-16.217l.03-.419c.349-5.363-1.734-10.426-5.472-13.935 3.09 1.465 6.17 2.93 9.24 4.406.439.219 2.781 1.395 5.472 2.741 5.482 2.761 8.791 8.532 8.382 14.742z" fill="#cb97e7"/></g><g><path d="m277.968 122.457h-43.939s-15.739-21.739-5.059-47.25c4.249-10.149 8.043-20.459 10.845-31.046 2.617-9.888 5.516-20.936 7.298-28.019.185-.746.358-1.488.518-2.224.815-3.751 4.309-6.442 8.368-6.442 4.062 0 7.553 2.695 8.37 6.448.153.703.319 1.413.495 2.126 1.779 7.101 4.685 18.183 7.309 28.096 2.801 10.583 6.589 20.891 10.842 31.034 10.703 25.523-5.047 47.277-5.047 47.277z" fill="#fdf6ec"/></g><g><path d="m277.966 122.453h-19.048s15.749-21.749 5.044-47.276c-4.256-10.137-8.044-20.443-10.845-31.029-2.312-8.761-4.864-18.44-6.638-25.467.219-.887.439-1.744.638-2.542.179-.748.359-1.485.518-2.223.807-3.748 4.306-6.439 8.363-6.439 2.033 0 3.927.668 5.402 1.814 1.485 1.146 2.562 2.761 2.97 4.635.149.698.319 1.405.498 2.123 1.774 7.097 4.685 18.181 7.306 28.098 2.801 10.586 6.589 20.892 10.845 31.029 10.696 25.528-5.053 47.277-5.053 47.277z" fill="#fef1da"/></g><g><circle cx="255.768" cy="127.284" fill="#fee97d" r="28.544"/></g><g><path d="m284.315 127.287c0 15.759-12.778 28.537-28.547 28.537-9.37 0-17.682-4.515-22.895-11.483 1.067.13 2.153.189 3.259.189 15.769 0 28.547-12.778 28.547-28.547 0-6.389-2.103-12.29-5.652-17.054 14.234 1.615 25.288 13.696 25.288 28.358z" fill="#fee45a"/></g></g><g><path d="m256.008 333.753c10.673 0 20.529-3.775 27.042-10.357 2.854-2.885 4.692-5.844 5.619-9.045 1.384-4.77.507-9.781-2.345-13.405-2.394-3.043-7.087-6.473-15.859-5.545-10.009 1.061-18.933 1.061-28.936 0-8.771-.936-13.466 2.502-15.86 5.544-2.852 3.624-3.729 8.635-2.346 13.402.929 3.203 2.766 6.162 5.621 9.049 6.514 6.583 16.378 10.358 27.064 10.357zm-16.054-23.483c10.943 1.16 21.139 1.16 32.088 0 1.125-.119 1.836-.081 2.25-.021-.165.514-.625 1.375-1.87 2.633-3.669 3.707-9.804 5.921-16.413 5.921-6.622 0-12.766-2.213-16.433-5.919-1.244-1.258-1.706-2.118-1.871-2.635.411-.061 1.122-.099 2.249.021z"/><path d="m361.674 262.013h3.169c16.637 0 30.172-13.535 30.172-30.172 0-14.01-9.599-25.819-22.565-29.199v-22.86c1.886-.592 3.717-1.427 5.447-2.522 11.367-7.195 13.987-23.247 5.717-33.756-.213-.27 3.389-6.959 3.688-7.679 4-9.64 6-20.065 5.457-30.574-.965-18.671-9.246-34.823-23.319-45.479-3.269-2.476-6.63-4.508-10.188-6.659-5.632-3.405-11.545-6.575-17.576-9.421-3.733-1.76-8.19-.165-9.951 3.57-1.763 3.734-.165 8.189 3.569 9.951 5.569 2.628 11.026 5.553 16.221 8.694 3.354 2.028 6.251 3.78 8.897 5.784 13.453 10.188 16.895 24.292 17.413 34.332.499 9.65-1.78 19.616-6.58 28.87-.43-.215-.748-.372-.879-.435-25.365-12.186-50.431-23.619-77.196-29.98 1.762-9.083 1.745-20.244-3.264-32.189-4.724-11.265-10.748-30.959-10.866-31.408 8.229 1.04 16.426 2.619 24.504 4.76 3.998 1.062 8.084-1.32 9.142-5.31 1.057-3.991-1.32-8.084-5.311-9.142-10.659-2.826-21.517-4.741-32.4-5.79-1.176-4.52-2.132-8.249-2.856-11.142-.159-.645-.309-1.286-.448-1.923-1.575-7.251-8.272-12.334-15.672-12.334-7.53 0-14.122 5.186-15.674 12.334-.144.665-.301 1.335-.461 1.984-.781 3.105-1.778 6.974-2.84 11.052-5.312.51-10.584 1.222-15.789 2.18-7.946 1.461-15.908 3.438-23.665 5.874-17.155 5.389-38.938 13.264-55.247 26.44-21.805 17.615-28.717 42.138-19.99 70.917 1.488 4.905 3.312 9.514 5.235 13.709.104.228-1.72 2.904-1.914 3.315-4.859 10.328-1.233 23.325 8.447 29.456 1.729 1.095 3.559 1.928 5.444 2.52v22.862c-12.966 3.38-22.565 15.189-22.565 29.199 0 16.637 13.535 30.172 30.172 30.172h3.183c.853 16.98 5.759 33.53 14.347 48.161 1.392 2.372 3.889 3.693 6.454 3.693 1.286 0 2.588-.332 3.777-1.029 3.561-2.09 4.753-6.671 2.663-10.231-8.136-13.865-12.438-29.741-12.438-45.915l.005-40.165c.938-.029 1.879-.052 2.813-.095 7.234 36.251 7.36 36.872 7.36 36.872 3.555 16.679 17.77 31.329 33.065 34.076 2.091.376 4.156.539 6.182.539 8.38 0 16.078-2.797 22.01-4.952 11.003-3.997 20.544-4.984 30.025-3.109 3.526.697 7.04 1.994 10.76 3.367 7.577 2.797 16.165 5.968 26.255 4.155 15.293-2.747 29.508-17.396 33.052-34.013.011-.049.031-.14 7.375-36.943.935.043 1.871.085 2.811.113l.005 40.155c0 50.099-40.759 90.858-90.858 90.858-20.986 0-41.456-7.323-57.638-20.62-3.191-2.62-7.899-2.16-10.522 1.03-2.621 3.19-2.16 7.901 1.03 10.522 9.838 8.084 21.043 14.251 32.976 18.321v14.729c0 6.994-4.21 13.43-10.667 16.069-44.776 18.302-73.708 61.381-73.708 109.754v7.166c0 4.129 3.346 7.476 7.476 7.476h222.105c4.129 0 7.476-3.347 7.476-7.476v-7.169c0-48.369-28.932-91.449-73.707-109.75-6.273-2.564-10.667-9.44-10.667-16.069 0-.04 0-14.693 0-14.693 40.033-13.694 69.328-50.75 71.522-94.828zm18.39-30.171c0 8.393-6.828 15.22-15.221 15.22h-3.035v-30.441h3.035c8.393 0 15.221 6.828 15.221 15.221zm-88.277-104.558c0-2.727-.315-5.381-.892-7.936 24.939 6.091 48.806 16.964 73.002 28.588.428.206 2.725 1.359 5.353 2.679 2.808 1.411 4.489 4.382 4.28 7.569l-.024.371c-.166 2.514-1.48 4.727-3.606 6.073-2.148 1.36-4.741 1.6-7.112.663-15.791-6.24-37.114-13.238-63.378-20.798-3.543-1.02-7.114-1.9-10.701-2.663 1.973-4.453 3.078-9.372 3.078-14.546zm-44.746-81.21c2.294-8.665 5.426-20.575 7.328-28.133.203-.818.393-1.632.567-2.436.043-.199.435-.553 1.063-.553.607 0 1.015.332 1.065.56.167.771.349 1.548.548 2.355 1.508 6.018 3.976 15.504 7.336 28.192 2.59 9.789 6.245 20.26 11.173 32.012 3.299 7.866 3.63 15.302 2.724 21.587-6.254-5.235-14.303-8.393-23.078-8.393-8.576 0-16.457 3.018-22.649 8.04-.846-6.212-.475-13.517 2.747-21.211 5.013-11.971 8.563-22.146 11.176-32.02zm29.795 81.21c0 11.617-9.451 21.068-21.068 21.068s-21.068-9.451-21.068-21.068 9.45-21.068 21.068-21.068 21.068 9.451 21.068 21.068zm-125.118-55.79c14.354-11.596 34.439-18.814 50.332-23.806 7.177-2.254 14.541-4.082 21.889-5.433 2.983-.549 5.992-1.005 9.016-1.393-.124.469-6.141 20.137-10.88 31.458-4.898 11.7-5.011 22.646-3.355 31.62-8.269 1.744-16.597 4.042-24.924 6.93-10.859 3.765-22.374 8.576-35.2 14.706-1.529.73-7.852 3.964-18.786 9.607-1.159-2.763-2.243-5.687-3.169-8.741-6.913-22.794-1.84-41.281 15.077-54.948zm-1.531 175.568h-3.035c-8.393 0-15.221-6.828-15.221-15.22s6.828-15.22 15.221-15.22h3.035zm-.976-81.772c-2.376.94-4.967.698-7.114-.662-2.124-1.344-3.437-3.557-3.603-6.071l-.037-.572c-.204-3.101 1.447-6.025 4.205-7.45 17.416-8.997 21.496-11.048 22.379-11.47 12.318-5.887 23.326-10.489 33.652-14.07 7.387-2.562 14.766-4.639 22.082-6.233-.666 2.734-1.027 5.585-1.027 8.521 0 5.211 1.121 10.163 3.121 14.639-3.445.743-6.875 1.589-10.28 2.569-26.255 7.559-47.58 14.556-63.378 20.799zm172.846 84.896c-2.286 10.717-11.745 20.801-21.087 22.478-6.086 1.093-11.807-1.019-18.434-3.465-4.104-1.515-8.348-3.081-13.037-4.009-12.271-2.427-24.357-1.243-38.031 3.724-7.746 2.814-14.168 4.875-20.444 3.75-9.343-1.678-18.802-11.762-21.067-22.386-.04-.201-4.272-21.403-7.028-35.211 12.685-1.755 24.855-4.989 36.403-9.683 12.511-5.085 23.422-11.374 33.359-19.225 1.945-1.539 4.666-1.538 6.612 0 9.937 7.852 20.849 14.14 33.358 19.225 11.543 4.692 23.723 7.923 36.404 9.675-2.753 13.805-6.984 35.002-7.008 35.127zm-23.765-58.654c-11.183-4.546-20.905-10.141-29.719-17.105-3.703-2.926-8.139-4.388-12.576-4.388s-8.874 1.463-12.575 4.388c-8.813 6.963-18.535 12.559-29.72 17.105-17.35 7.052-36.131 10.229-54.75 10.135-.193-.001-2.167-.002-4.457-.003v-22.396c.07-.027.141-.045.211-.073 15.354-6.068 36.22-12.909 62.018-20.335 5.38-1.549 10.825-2.765 16.306-3.665 6.205 5.064 14.121 8.108 22.736 8.108 8.648 0 16.593-3.066 22.808-8.164 5.615.899 11.191 2.135 16.699 3.721 25.805 7.428 46.67 14.27 62.017 20.335.069.027.138.049.207.075v22.394c-2.291.001-4.266.002-4.458.003-19.452.135-37.893-3.284-54.747-10.135zm-117.618 273.32c-1.928 4.412-2.906 9.028-2.906 13.719v18.472h-25.348c.088-30.104 13.007-57.837 34.605-77.043 2.961 20.231-3.178 37.595-6.351 44.852zm67.848 32.191h-55.803v-18.472c0-2.618.557-5.219 1.655-7.731 4.134-9.457 12.536-33.488 5.938-60.827.598-.382 1.213-.735 1.818-1.105-.013-.01-.024-.021-.037-.031 4.657-2.827 9.574-5.327 14.741-7.438 5.644-2.307 10.342-6.096 13.769-10.808 6.369 1.117 12.305 1.85 17.919 2.218zm-12.095-120.604c.241-1.606.367-3.246.367-4.909v-10.813c6.306 1.167 12.732 1.783 19.204 1.783 6.556 0 12.973-.607 19.202-1.753v10.784c0 1.597.12 3.171.343 4.716-1.851.327-3.652.633-5.396.908-9.82 1.557-20.687 1.334-33.72-.716zm88.543 43.561c21.598 19.206 34.516 46.937 34.604 77.044h-25.347v-18.472c0-4.691-.978-9.308-2.906-13.72-3.173-7.257-9.313-24.621-6.351-44.852zm-29.809-18.561c5.561 2.273 10.832 4.997 15.801 8.096-.008.008-.015.018-.023.026.246.154.5.296.744.452-6.599 27.339 1.804 51.37 5.938 60.826 1.098 2.512 1.655 5.113 1.655 7.731v18.472h-55.803v-104.132c3.082-.196 6.08-.523 9.012-.989 2.792-.441 5.686-.94 8.75-1.509 3.439 4.814 8.194 8.684 13.926 11.027z"/><path d="m216.374 226.307c-4.129 0-7.476 3.347-7.476 7.476v15.269c0 4.128 3.347 7.476 7.476 7.476s7.476-3.347 7.476-7.476v-15.269c0-4.129-3.346-7.476-7.476-7.476z"/><path d="m288.145 233.782v15.269c0 4.128 3.346 7.476 7.476 7.476 4.129 0 7.476-3.347 7.476-7.476v-15.269c0-4.129-3.347-7.476-7.476-7.476-4.13.001-7.476 3.348-7.476 7.476z"/><path d="m255.999 209.129c-3.871 0-7.009 3.138-7.009 7.008 0 3.871 3.138 7.009 7.009 7.009s7.008-3.138 7.008-7.009c0-3.87-3.137-7.008-7.008-7.008z"/></g></g></svg>