<svg id="color_line" height="512" viewBox="0 0 74 74" width="512" xmlns="http://www.w3.org/2000/svg" data-name="color line"><path d="m13.144 26.856a23.856 23.856 0 0 1 47.713 0c-.001 13.176-23.857 44.144-23.857 44.144s-23.856-30.968-23.856-44.144z" fill="#27ccbc"/><path d="m60.86 26.86c0 13.17-23.86 44.14-23.86 44.14s-.94-1.22-2.45-3.28c4.86-6.51 22.65-31.15 22.65-42.53a23.841 23.841 0 0 0 -12.17-20.8 23.852 23.852 0 0 1 15.83 22.47z" fill="#21b3a9"/><circle cx="37" cy="26.856" fill="#fff" r="16.419"/><path d="m37 43.775a16.919 16.919 0 1 1 16.919-16.919 16.938 16.938 0 0 1 -16.919 16.919zm0-32.838a15.919 15.919 0 1 0 15.919 15.919 15.937 15.937 0 0 0 -15.919-15.918z" fill="#323c6b"/><circle cx="37" cy="24.073" fill="#9297ab" r="6.719"/><path d="m37 31.292a7.219 7.219 0 1 1 7.219-7.219 7.227 7.227 0 0 1 -7.219 7.219zm0-13.438a6.219 6.219 0 1 0 6.219 6.219 6.226 6.226 0 0 0 -6.219-6.219z" fill="#323c6b"/><circle cx="37" cy="24.073" fill="#fff" r="1.864"/><g fill="#323c6b"><path d="m37 26.437a2.364 2.364 0 1 1 2.364-2.364 2.367 2.367 0 0 1 -2.364 2.364zm0-3.729a1.364 1.364 0 1 0 1.364 1.364 1.366 1.366 0 0 0 -1.364-1.364z"/><path d="m37 17.854a.5.5 0 0 1 -.5-.5v-2.128a.5.5 0 0 1 1 0v2.127a.5.5 0 0 1 -.5.501z"/><path d="m32.249 19.822a.5.5 0 0 1 -.354-.146l-1.5-1.5a.5.5 0 0 1 .707-.707l1.5 1.5a.5.5 0 0 1 -.354.854z"/><path d="m30.281 24.573h-2.128a.5.5 0 0 1 0-1h2.128a.5.5 0 0 1 0 1z"/><path d="m30.744 30.829a.5.5 0 0 1 -.354-.854l1.5-1.5a.5.5 0 0 1 .707.707l-1.5 1.5a.5.5 0 0 1 -.353.147z"/><path d="m37 33.42a.5.5 0 0 1 -.5-.5v-2.128a.5.5 0 0 1 1 0v2.128a.5.5 0 0 1 -.5.5z"/><path d="m43.256 30.829a.5.5 0 0 1 -.354-.146l-1.5-1.5a.5.5 0 0 1 .707-.707l1.5 1.5a.5.5 0 0 1 -.354.854z"/><path d="m45.847 24.573h-2.128a.5.5 0 0 1 0-1h2.128a.5.5 0 0 1 0 1z"/><path d="m41.751 19.822a.5.5 0 0 1 -.354-.854l1.5-1.5a.5.5 0 0 1 .707.707l-1.5 1.5a.5.5 0 0 1 -.353.147z"/><path d="m30.281 37.787a.5.5 0 0 1 -.451-.715l5.592-11.738a.5.5 0 1 1 .9.43l-5.59 11.736a.5.5 0 0 1 -.451.287z"/><path d="m43.719 37.787a.5.5 0 0 1 -.451-.285l-5.589-11.734a.5.5 0 1 1 .9-.43l5.591 11.734a.5.5 0 0 1 -.451.715z"/><path d="m37 71.5a.5.5 0 0 1 -.4-.195c-.978-1.27-23.96-31.255-23.96-44.449a24.356 24.356 0 0 1 48.713 0c0 13.194-22.982 43.179-23.96 44.449a.5.5 0 0 1 -.393.195zm0-68a23.383 23.383 0 0 0 -23.356 23.356c0 11.93 20.25 39.2 23.356 43.317 3.106-4.113 23.356-31.388 23.356-43.317a23.383 23.383 0 0 0 -23.356-23.356z"/><path d="m57.448 45.855a.5.5 0 0 1 -.441-.735c1.212-2.271 2.268-4.433 3.138-6.424a.5.5 0 0 1 .916.4c-.88 2.015-1.947 4.2-3.171 6.494a.5.5 0 0 1 -.442.265z"/><path d="m10.432 23.624h-.057a.5.5 0 0 1 -.441-.552c.02-.175.041-.35.068-.522a.5.5 0 0 1 .988.158c-.025.157-.045.315-.062.475a.5.5 0 0 1 -.496.441z"/><path d="m10.97 20.813a.5.5 0 0 1 -.485-.622 27.343 27.343 0 0 1 2.973-7.229.5.5 0 0 1 .861.509 26.281 26.281 0 0 0 -2.863 6.964.5.5 0 0 1 -.486.378z"/><path d="m61.341 37.708a.5.5 0 0 1 -.468-.677l.15-.409a.5.5 0 0 1 .941.339l-.156.423a.5.5 0 0 1 -.467.324z"/></g><path d="m28.848 53.995a.813.813 0 0 1 -1.107-.262l-4.552-7.483a.707.707 0 0 1 -.1-.291.77.77 0 0 1 .368-.81.717.717 0 0 1 .594-.092.8.8 0 0 1 .5.348l4.564 7.495a.825.825 0 0 1 -.267 1.095z" fill="#fff"/><path d="m30.571 56.7a.8.8 0 0 1 -1.1-.267l-.24-.351a.75.75 0 0 1 -.092-.294.781.781 0 0 1 .359-.8.8.8 0 0 1 1.1.253l.24.351a.828.828 0 0 1 -.267 1.108z" fill="#fff"/></svg>